M48
; DRILL file {KiCad (6.0.10)} date Wed Feb 22 22:23:48 2023
; FORMAT={-:-/ absolute / metric / decimal}
; #@! TF.CreationDate,2023-02-22T22:23:48-03:00
; #@! TF.GenerationSoftware,Kicad,Pcbnew,(6.0.10)
; #@! TF.FileFunction,MixedPlating,1,2
FMAT,2
METRIC
; #@! TA.AperFunction,Plated,PTH,ViaDrill
T1C0.400
; #@! TA.AperFunction,Plated,PTH,ComponentDrill
T2C0.750
; #@! TA.AperFunction,Plated,PTH,ComponentDrill
T3C0.762
; #@! TA.AperFunction,Plated,PTH,ViaDrill
T4C0.800
; #@! TA.AperFunction,Plated,PTH,ComponentDrill
T5C0.800
; #@! TA.AperFunction,Plated,PTH,ComponentDrill
T6C0.900
; #@! TA.AperFunction,Plated,PTH,ComponentDrill
T7C1.000
; #@! TA.AperFunction,Plated,PTH,ComponentDrill
T8C1.100
%
G90
G05
T1
X96.495Y-132.309
X97.104Y-135.331
X97.282Y-133.045
X98.095Y-131.496
X100.152Y-133.833
X101.854Y-134.569
X114.275Y-82.296
X122.987Y-83.82
X126.797Y-83.033
X128.499Y-81.331
X128.524Y-83.033
X137.541Y-85.649
X140.894Y-85.674
X145.263Y-132.309
X146.075Y-133.071
X146.253Y-135.357
X146.863Y-131.547
X148.539Y-133.833
X151.74Y-134.595
X181.127Y-88.468
X181.966Y-89.332
X182.677Y-83.845
X183.134Y-124.689
X183.134Y-125.73
X183.134Y-126.848
X183.134Y-127.914
X183.337Y-83.033
X183.972Y-82.22
X184.607Y-81.356
X188.798Y-136.093
X189.535Y-135.357
X190.373Y-95.91
X190.373Y-98.374
X190.373Y-101.549
X192.126Y-126.314
X192.989Y-143.205
X193.777Y-125.578
X193.98Y-144.069
X194.767Y-130.48
X194.882Y-135.89
X195.656Y-100.051
X195.758Y-142.596
X196.418Y-102.108
X196.571Y-129.413
X196.621Y-124.866
X196.647Y-136.855
X197.403Y-137.715
X201.905Y-132.309
X202.641Y-133.071
X203.479Y-131.547
X205.791Y-130.48
X206.477Y-133.833
X209.042Y-134.595
X221.513Y-89.535
X221.539Y-91.897
X223.571Y-91.923
X223.596Y-89.535
X225.501Y-143.332
X226.949Y-144.069
X228.956Y-93.091
X229.692Y-92.354
X229.895Y-142.545
X230.429Y-91.592
X232.08Y-137.719
X232.816Y-136.855
X233.578Y-135.89
X238.836Y-88.671
X238.836Y-90.018
X240.03Y-88.671
X240.03Y-90.018
X241.529Y-91.542
X242.443Y-92.202
X246.583Y-116.815
X247.345Y-116.027
X247.548Y-89.154
X248.107Y-115.214
X248.742Y-114.3
X249.403Y-113.513
X250.673Y-132.309
X251.435Y-133.071
X252.273Y-131.547
X255.016Y-124.866
X255.219Y-89.205
X255.219Y-93.751
X255.422Y-133.833
X257.429Y-134.595
X263.22Y-89.154
X264.77Y-89.179
X265.278Y-123.292
X265.481Y-127.838
X266.344Y-123.241
X267.437Y-123.469
X267.919Y-124.384
X270.459Y-134.595
X271.094Y-114.859
X271.831Y-109.779
X271.831Y-115.697
X272.186Y-119.38
X272.237Y-107.594
X272.364Y-124.511
X272.567Y-114.122
X273.05Y-132.309
X273.304Y-102.667
X273.304Y-116.51
X273.914Y-95.199
X273.939Y-96.723
X274.041Y-117.272
X275.539Y-133.071
X276.047Y-114.63
X276.504Y-131.547
X277.063Y-115.926
X277.089Y-117.424
X277.52Y-133.833
X307.315Y-132.309
X308.153Y-133.071
X308.966Y-131.547
X310.667Y-133.833
X311.81Y-124.866
X313.309Y-134.595
X356.083Y-132.309
X356.845Y-133.071
X357.683Y-131.547
X360.401Y-133.833
X360.502Y-125.603
X362.56Y-134.595
T2
X64.537Y-103.556
X64.537Y-109.075
X65.807Y-103.556
X65.807Y-109.075
X67.077Y-103.556
X67.077Y-109.075
X168.191Y-127.387
X168.191Y-128.657
X168.191Y-129.927
X171.354Y-104.29
X171.354Y-105.56
X171.354Y-106.83
X290.612Y-104.511
X290.612Y-105.781
X290.612Y-107.051
X293.735Y-127.422
X293.735Y-128.692
X293.735Y-129.962
T3
X116.447Y-105.001
X116.447Y-145.641
X134.227Y-105.001
X134.227Y-145.641
X216.452Y-82.994
X216.452Y-85.534
X216.452Y-88.074
X216.452Y-90.614
X216.452Y-93.154
X216.452Y-95.694
X216.452Y-98.234
X216.452Y-100.774
X216.452Y-103.314
X216.452Y-105.854
X216.452Y-108.394
X216.452Y-110.934
X216.452Y-113.474
X216.452Y-116.014
X216.452Y-118.554
X244.392Y-82.994
X244.392Y-85.534
X244.392Y-88.074
X244.392Y-90.614
X244.392Y-93.154
X244.392Y-95.694
X244.392Y-98.234
X244.392Y-100.774
X244.392Y-103.314
X244.392Y-105.854
X244.392Y-108.394
X244.392Y-110.934
X244.392Y-113.474
X244.392Y-116.014
X244.392Y-118.554
T4
X78.867Y-111.379
X78.867Y-148.92
X94.107Y-122.352
X142.367Y-122.301
X164.135Y-106.883
X168.275Y-149.987
X172.161Y-122.86
X182.397Y-117.094
X183.185Y-122.504
X188.366Y-107.417
X188.62Y-103.505
X199.085Y-122.174
X247.701Y-122.25
X263.703Y-118.567
X265.1Y-91.846
X269.138Y-119.38
X297.002Y-106.959
X304.216Y-122.225
X352.908Y-120.752
T5
X50.884Y-133.452
X50.884Y-148.692
X53.424Y-133.452
X53.424Y-148.692
X55.964Y-133.452
X55.964Y-148.692
X58.504Y-133.452
X58.504Y-148.692
X61.044Y-133.452
X61.044Y-148.692
X64.6Y-82.702
X64.6Y-97.942
X67.14Y-82.702
X67.14Y-97.942
X68.927Y-116.732
X68.927Y-126.686
X69.68Y-82.702
X69.68Y-97.942
X71.427Y-116.732
X71.427Y-126.686
X72.22Y-82.702
X72.22Y-97.942
X74.76Y-82.702
X74.76Y-97.942
X83.299Y-105.019
X85.799Y-105.019
X91.606Y-105.019
X94.106Y-105.019
X118.338Y-85.752
X118.338Y-93.372
X120.878Y-85.752
X120.878Y-93.372
X123.418Y-85.752
X123.418Y-93.372
X125.958Y-85.752
X125.958Y-93.372
X128.498Y-85.752
X128.498Y-93.372
X131.038Y-85.752
X131.038Y-93.372
X133.578Y-85.752
X133.578Y-93.372
X168.635Y-88.713
X168.635Y-98.873
X168.707Y-114.56
X168.707Y-124.72
X171.826Y-91.261
X171.826Y-101.421
X171.956Y-117.121
X171.956Y-127.281
X185.19Y-93.667
X185.19Y-96.207
X185.19Y-98.747
X185.19Y-101.287
X185.19Y-103.827
X185.19Y-106.367
X185.19Y-108.907
X185.19Y-111.447
X192.81Y-93.667
X192.81Y-96.207
X192.81Y-98.747
X192.81Y-101.287
X192.81Y-103.827
X192.81Y-106.367
X192.81Y-108.907
X192.81Y-111.447
X194.988Y-82.031
X200.889Y-105.674
X200.889Y-108.174
X205.148Y-82.031
X208.986Y-105.674
X208.986Y-108.174
X208.986Y-114.306
X208.986Y-116.806
X209.104Y-82.004
X211.644Y-82.004
X253.819Y-81.487
X256.359Y-81.487
X258.899Y-81.487
X261.439Y-81.487
X269.054Y-93.667
X269.054Y-96.207
X269.054Y-98.747
X269.054Y-101.287
X269.054Y-103.827
X269.054Y-106.367
X269.054Y-108.907
X269.054Y-111.447
X276.674Y-93.667
X276.674Y-96.207
X276.674Y-98.747
X276.674Y-101.287
X276.674Y-103.827
X276.674Y-106.367
X276.674Y-108.907
X276.674Y-111.447
X289.389Y-117.197
X289.389Y-127.357
X289.392Y-91.288
X289.392Y-101.448
X292.524Y-114.669
X292.524Y-124.829
X292.528Y-88.697
X292.528Y-98.857
X300.163Y-118.618
X300.163Y-128.778
T6
X177.884Y-98.908
X177.884Y-101.448
X177.884Y-124.816
X177.884Y-127.356
X283.421Y-98.908
X283.421Y-101.448
X283.421Y-124.816
X283.421Y-127.356
T7
X65.761Y-148.823
X67.613Y-138.44
X72.613Y-138.44
X73.961Y-148.823
X95.842Y-85.672
X95.842Y-145.672
X98.382Y-85.672
X98.382Y-145.672
X100.922Y-85.672
X100.922Y-145.672
X103.462Y-85.672
X103.462Y-145.672
X105.446Y-105.019
X106.002Y-85.672
X106.002Y-145.672
X110.446Y-105.019
X144.61Y-85.672
X144.61Y-145.672
X147.15Y-85.672
X147.15Y-145.672
X149.69Y-85.672
X149.69Y-145.672
X152.23Y-85.672
X152.23Y-145.672
X154.77Y-85.672
X154.77Y-145.672
X201.252Y-85.672
X201.252Y-145.672
X203.792Y-85.672
X203.792Y-145.672
X206.332Y-85.672
X206.332Y-145.672
X208.872Y-85.672
X208.872Y-145.672
X211.412Y-85.672
X211.412Y-145.672
X250.02Y-85.672
X250.02Y-145.672
X252.56Y-85.672
X252.56Y-145.672
X255.1Y-85.672
X255.1Y-145.672
X257.64Y-85.672
X257.64Y-145.672
X260.18Y-85.672
X260.18Y-145.672
X306.662Y-85.672
X306.662Y-145.672
X309.202Y-85.672
X309.202Y-145.672
X311.742Y-85.672
X311.742Y-145.672
X314.282Y-85.672
X314.282Y-145.672
X316.822Y-85.672
X316.822Y-145.672
X355.43Y-85.672
X355.43Y-145.672
X357.97Y-85.672
X357.97Y-145.672
X360.51Y-85.672
X360.51Y-145.672
X363.05Y-85.672
X363.05Y-145.672
X365.59Y-85.672
X365.59Y-145.672
T8
X291.206Y-145.658
X293.746Y-145.658
X296.286Y-145.658
T0
M30
