%TF.GenerationSoftware,KiCad,Pcbnew,(6.0.10)*%
%TF.CreationDate,2023-02-22T22:23:04-03:00*%
%TF.ProjectId,SevenSegmentClock,53657665-6e53-4656-976d-656e74436c6f,rev?*%
%TF.SameCoordinates,Original*%
%TF.FileFunction,Paste,Top*%
%TF.FilePolarity,Positive*%
%FSLAX46Y46*%
G04 Gerber Fmt 4.6, Leading zero omitted, Abs format (unit mm)*
G04 Created by KiCad (PCBNEW (6.0.10)) date 2023-02-22 22:23:04*
%MOMM*%
%LPD*%
G01*
G04 APERTURE LIST*
G04 Aperture macros list*
%AMRoundRect*
0 Rectangle with rounded corners*
0 $1 Rounding radius*
0 $2 $3 $4 $5 $6 $7 $8 $9 X,Y pos of 4 corners*
0 Add a 4 corners polygon primitive as box body*
4,1,4,$2,$3,$4,$5,$6,$7,$8,$9,$2,$3,0*
0 Add four circle primitives for the rounded corners*
1,1,$1+$1,$2,$3*
1,1,$1+$1,$4,$5*
1,1,$1+$1,$6,$7*
1,1,$1+$1,$8,$9*
0 Add four rect primitives between the rounded corners*
20,1,$1+$1,$2,$3,$4,$5,0*
20,1,$1+$1,$4,$5,$6,$7,0*
20,1,$1+$1,$6,$7,$8,$9,0*
20,1,$1+$1,$8,$9,$2,$3,0*%
G04 Aperture macros list end*
%ADD10RoundRect,0.250000X-0.400000X-0.625000X0.400000X-0.625000X0.400000X0.625000X-0.400000X0.625000X0*%
%ADD11RoundRect,0.250000X0.625000X-0.400000X0.625000X0.400000X-0.625000X0.400000X-0.625000X-0.400000X0*%
%ADD12RoundRect,0.250000X-0.650000X0.412500X-0.650000X-0.412500X0.650000X-0.412500X0.650000X0.412500X0*%
%ADD13RoundRect,0.250000X0.412500X0.650000X-0.412500X0.650000X-0.412500X-0.650000X0.412500X-0.650000X0*%
%ADD14RoundRect,0.250000X-0.625000X0.400000X-0.625000X-0.400000X0.625000X-0.400000X0.625000X0.400000X0*%
%ADD15RoundRect,0.150000X0.150000X-0.825000X0.150000X0.825000X-0.150000X0.825000X-0.150000X-0.825000X0*%
%ADD16RoundRect,0.250000X0.400000X0.625000X-0.400000X0.625000X-0.400000X-0.625000X0.400000X-0.625000X0*%
%ADD17RoundRect,0.250000X0.650000X-0.412500X0.650000X0.412500X-0.650000X0.412500X-0.650000X-0.412500X0*%
G04 APERTURE END LIST*
D10*
%TO.C,R38*%
X281710800Y-105785000D03*
X284810800Y-105785000D03*
%TD*%
D11*
%TO.C,R1*%
X98382100Y-93599600D03*
X98382100Y-90499600D03*
%TD*%
D12*
%TO.C,C9*%
X304162200Y-124015100D03*
X304162200Y-127140100D03*
%TD*%
D13*
%TO.C,C3*%
X274416700Y-90065600D03*
X271291700Y-90065600D03*
%TD*%
D14*
%TO.C,R55*%
X363050100Y-136981600D03*
X363050100Y-140081600D03*
%TD*%
D11*
%TO.C,R28*%
X252560100Y-93599600D03*
X252560100Y-90499600D03*
%TD*%
D15*
%TO.C,U5*%
X201887100Y-128052600D03*
X203157100Y-128052600D03*
X204427100Y-128052600D03*
X205697100Y-128052600D03*
X206967100Y-128052600D03*
X208237100Y-128052600D03*
X209507100Y-128052600D03*
X210777100Y-128052600D03*
X210777100Y-123102600D03*
X209507100Y-123102600D03*
X208237100Y-123102600D03*
X206967100Y-123102600D03*
X205697100Y-123102600D03*
X204427100Y-123102600D03*
X203157100Y-123102600D03*
X201887100Y-123102600D03*
%TD*%
D14*
%TO.C,R12*%
X152230100Y-136981600D03*
X152230100Y-140081600D03*
%TD*%
D12*
%TO.C,C8*%
X199223400Y-124015100D03*
X199223400Y-127140100D03*
%TD*%
%TO.C,C14*%
X94090800Y-124015100D03*
X94090800Y-127140100D03*
%TD*%
D11*
%TO.C,R50*%
X64769200Y-91872400D03*
X64769200Y-88772400D03*
%TD*%
D14*
%TO.C,R5*%
X103462100Y-136981600D03*
X103462100Y-140081600D03*
%TD*%
D16*
%TO.C,R15*%
X179357600Y-130574000D03*
X176257600Y-130574000D03*
%TD*%
D14*
%TO.C,R30*%
X252560100Y-136981600D03*
X252560100Y-140081600D03*
%TD*%
D11*
%TO.C,R34*%
X260180100Y-93599600D03*
X260180100Y-90499600D03*
%TD*%
D14*
%TO.C,R52*%
X360510100Y-136981600D03*
X360510100Y-140081600D03*
%TD*%
%TO.C,R43*%
X309202100Y-136981600D03*
X309202100Y-140081600D03*
%TD*%
D11*
%TO.C,R29*%
X250020100Y-93599600D03*
X250020100Y-90499600D03*
%TD*%
D12*
%TO.C,C10*%
X352916200Y-124015100D03*
X352916200Y-127140100D03*
%TD*%
D14*
%TO.C,R11*%
X149690100Y-136981600D03*
X149690100Y-140081600D03*
%TD*%
%TO.C,R54*%
X61078600Y-125179100D03*
X61078600Y-128279100D03*
%TD*%
D11*
%TO.C,R48*%
X357970100Y-93091600D03*
X357970100Y-89991600D03*
%TD*%
D14*
%TO.C,R10*%
X147150100Y-136981600D03*
X147150100Y-140081600D03*
%TD*%
D11*
%TO.C,R7*%
X106002100Y-93599600D03*
X106002100Y-90499600D03*
%TD*%
%TO.C,R46*%
X314282100Y-93599600D03*
X314282100Y-90499600D03*
%TD*%
D14*
%TO.C,R32*%
X257640100Y-136981600D03*
X257640100Y-140081600D03*
%TD*%
%TO.C,R44*%
X311742100Y-136981600D03*
X311742100Y-140081600D03*
%TD*%
D11*
%TO.C,R21*%
X203792100Y-93599600D03*
X203792100Y-90499600D03*
%TD*%
D15*
%TO.C,U12*%
X356065100Y-128052600D03*
X357335100Y-128052600D03*
X358605100Y-128052600D03*
X359875100Y-128052600D03*
X361145100Y-128052600D03*
X362415100Y-128052600D03*
X363685100Y-128052600D03*
X364955100Y-128052600D03*
X364955100Y-123102600D03*
X363685100Y-123102600D03*
X362415100Y-123102600D03*
X361145100Y-123102600D03*
X359875100Y-123102600D03*
X358605100Y-123102600D03*
X357335100Y-123102600D03*
X356065100Y-123102600D03*
%TD*%
D12*
%TO.C,C12*%
X142313400Y-124015100D03*
X142313400Y-127140100D03*
%TD*%
D14*
%TO.C,R23*%
X203792100Y-136981600D03*
X203792100Y-140081600D03*
%TD*%
D17*
%TO.C,C1*%
X185174600Y-129729600D03*
X185174600Y-126604600D03*
%TD*%
D14*
%TO.C,R25*%
X208872100Y-136981600D03*
X208872100Y-140081600D03*
%TD*%
%TO.C,R4*%
X100922100Y-136981600D03*
X100922100Y-140081600D03*
%TD*%
D13*
%TO.C,C4*%
X190552900Y-89049600D03*
X187427900Y-89049600D03*
%TD*%
D17*
%TO.C,C17*%
X213628000Y-108553720D03*
X213628000Y-105428720D03*
%TD*%
D11*
%TO.C,R2*%
X95842100Y-93599600D03*
X95842100Y-90499600D03*
%TD*%
D15*
%TO.C,U2*%
X269189200Y-128052600D03*
X270459200Y-128052600D03*
X271729200Y-128052600D03*
X272999200Y-128052600D03*
X274269200Y-128052600D03*
X275539200Y-128052600D03*
X276809200Y-128052600D03*
X278079200Y-128052600D03*
X278079200Y-123102600D03*
X276809200Y-123102600D03*
X275539200Y-123102600D03*
X274269200Y-123102600D03*
X272999200Y-123102600D03*
X271729200Y-123102600D03*
X270459200Y-123102600D03*
X269189200Y-123102600D03*
%TD*%
D14*
%TO.C,R31*%
X255100100Y-136981600D03*
X255100100Y-140081600D03*
%TD*%
D15*
%TO.C,U1*%
X96477100Y-128052600D03*
X97747100Y-128052600D03*
X99017100Y-128052600D03*
X100287100Y-128052600D03*
X101557100Y-128052600D03*
X102827100Y-128052600D03*
X104097100Y-128052600D03*
X105367100Y-128052600D03*
X105367100Y-123102600D03*
X104097100Y-123102600D03*
X102827100Y-123102600D03*
X101557100Y-123102600D03*
X100287100Y-123102600D03*
X99017100Y-123102600D03*
X97747100Y-123102600D03*
X96477100Y-123102600D03*
%TD*%
%TO.C,U7*%
X225977100Y-145685000D03*
X227247100Y-145685000D03*
X228517100Y-145685000D03*
X229787100Y-145685000D03*
X231057100Y-145685000D03*
X232327100Y-145685000D03*
X233597100Y-145685000D03*
X234867100Y-145685000D03*
X234867100Y-140735000D03*
X233597100Y-140735000D03*
X232327100Y-140735000D03*
X231057100Y-140735000D03*
X229787100Y-140735000D03*
X228517100Y-140735000D03*
X227247100Y-140735000D03*
X225977100Y-140735000D03*
%TD*%
D11*
%TO.C,R13*%
X152230100Y-93599600D03*
X152230100Y-90499600D03*
%TD*%
D14*
%TO.C,R51*%
X357970100Y-136981600D03*
X357970100Y-140081600D03*
%TD*%
%TO.C,R3*%
X98382100Y-136981600D03*
X98382100Y-140081600D03*
%TD*%
D11*
%TO.C,R47*%
X316844100Y-93599600D03*
X316844100Y-90499600D03*
%TD*%
D10*
%TO.C,R35*%
X281736200Y-130536000D03*
X284836200Y-130536000D03*
%TD*%
D15*
%TO.C,U11*%
X307297100Y-128052600D03*
X308567100Y-128052600D03*
X309837100Y-128052600D03*
X311107100Y-128052600D03*
X312377100Y-128052600D03*
X313647100Y-128052600D03*
X314917100Y-128052600D03*
X316187100Y-128052600D03*
X316187100Y-123102600D03*
X314917100Y-123102600D03*
X313647100Y-123102600D03*
X312377100Y-123102600D03*
X311107100Y-123102600D03*
X309837100Y-123102600D03*
X308567100Y-123102600D03*
X307297100Y-123102600D03*
%TD*%
D17*
%TO.C,C16*%
X213628000Y-117186479D03*
X213628000Y-114061479D03*
%TD*%
D14*
%TO.C,R45*%
X314282100Y-136981600D03*
X314282100Y-140081600D03*
%TD*%
D11*
%TO.C,R9*%
X144610100Y-93599600D03*
X144610100Y-90499600D03*
%TD*%
D15*
%TO.C,U8*%
X250655100Y-128052600D03*
X251925100Y-128052600D03*
X253195100Y-128052600D03*
X254465100Y-128052600D03*
X255735100Y-128052600D03*
X257005100Y-128052600D03*
X258275100Y-128052600D03*
X259545100Y-128052600D03*
X259545100Y-123102600D03*
X258275100Y-123102600D03*
X257005100Y-123102600D03*
X255735100Y-123102600D03*
X254465100Y-123102600D03*
X253195100Y-123102600D03*
X251925100Y-123102600D03*
X250655100Y-123102600D03*
%TD*%
D10*
%TO.C,R62*%
X247057400Y-82971400D03*
X250157400Y-82971400D03*
%TD*%
D16*
%TO.C,R18*%
X179324200Y-105569400D03*
X176224200Y-105569400D03*
%TD*%
D15*
%TO.C,U3*%
X145245100Y-128052600D03*
X146515100Y-128052600D03*
X147785100Y-128052600D03*
X149055100Y-128052600D03*
X150325100Y-128052600D03*
X151595100Y-128052600D03*
X152865100Y-128052600D03*
X154135100Y-128052600D03*
X154135100Y-123102600D03*
X152865100Y-123102600D03*
X151595100Y-123102600D03*
X150325100Y-123102600D03*
X149055100Y-123102600D03*
X147785100Y-123102600D03*
X146515100Y-123102600D03*
X145245100Y-123102600D03*
%TD*%
D17*
%TO.C,C19*%
X111647000Y-145605900D03*
X111647000Y-142480900D03*
%TD*%
D13*
%TO.C,C22*%
X109640977Y-111900000D03*
X106515977Y-111900000D03*
%TD*%
D11*
%TO.C,R33*%
X257640100Y-93599600D03*
X257640100Y-90499600D03*
%TD*%
%TO.C,R27*%
X211412100Y-93599600D03*
X211412100Y-90499600D03*
%TD*%
%TO.C,R56*%
X363050100Y-93091600D03*
X363050100Y-89991600D03*
%TD*%
%TO.C,R22*%
X201252100Y-93599600D03*
X201252100Y-90499600D03*
%TD*%
%TO.C,R26*%
X208872100Y-93599600D03*
X208872100Y-90499600D03*
%TD*%
D14*
%TO.C,R24*%
X206332100Y-136981600D03*
X206332100Y-140081600D03*
%TD*%
D12*
%TO.C,C2*%
X113992400Y-88009300D03*
X113992400Y-91134300D03*
%TD*%
%TO.C,C7*%
X185174600Y-121477600D03*
X185174600Y-124602600D03*
%TD*%
%TO.C,C6*%
X222842800Y-141647500D03*
X222842800Y-144772500D03*
%TD*%
D11*
%TO.C,R8*%
X147150100Y-93599600D03*
X147150100Y-90499600D03*
%TD*%
%TO.C,R42*%
X306662100Y-93599600D03*
X306662100Y-90499600D03*
%TD*%
D12*
%TO.C,C11*%
X247647200Y-124015100D03*
X247647200Y-127140100D03*
%TD*%
D15*
%TO.C,U6*%
X187654400Y-128078600D03*
X188924400Y-128078600D03*
X190194400Y-128078600D03*
X191464400Y-128078600D03*
X192734400Y-128078600D03*
X194004400Y-128078600D03*
X195274400Y-128078600D03*
X196544400Y-128078600D03*
X196544400Y-123128600D03*
X195274400Y-123128600D03*
X194004400Y-123128600D03*
X192734400Y-123128600D03*
X191464400Y-123128600D03*
X190194400Y-123128600D03*
X188924400Y-123128600D03*
X187654400Y-123128600D03*
%TD*%
D11*
%TO.C,R49*%
X355430100Y-93091600D03*
X355430100Y-89991600D03*
%TD*%
D12*
%TO.C,C13*%
X266268200Y-121515100D03*
X266268200Y-124640100D03*
%TD*%
D11*
%TO.C,R6*%
X103462100Y-93599600D03*
X103462100Y-90499600D03*
%TD*%
%TO.C,R57*%
X365590100Y-93091600D03*
X365590100Y-89991600D03*
%TD*%
D17*
%TO.C,C5*%
X266268200Y-129640100D03*
X266268200Y-126515100D03*
%TD*%
D11*
%TO.C,R41*%
X309202100Y-93599600D03*
X309202100Y-90499600D03*
%TD*%
%TO.C,R14*%
X154770100Y-93599600D03*
X154770100Y-90499600D03*
%TD*%
M02*
