%TF.GenerationSoftware,KiCad,Pcbnew,(6.0.10)*%
%TF.CreationDate,2023-02-22T22:23:04-03:00*%
%TF.ProjectId,SevenSegmentClock,53657665-6e53-4656-976d-656e74436c6f,rev?*%
%TF.SameCoordinates,Original*%
%TF.FileFunction,Soldermask,Bot*%
%TF.FilePolarity,Negative*%
%FSLAX46Y46*%
G04 Gerber Fmt 4.6, Leading zero omitted, Abs format (unit mm)*
G04 Created by KiCad (PCBNEW (6.0.10)) date 2023-02-22 22:23:04*
%MOMM*%
%LPD*%
G01*
G04 APERTURE LIST*
G04 Aperture macros list*
%AMRoundRect*
0 Rectangle with rounded corners*
0 $1 Rounding radius*
0 $2 $3 $4 $5 $6 $7 $8 $9 X,Y pos of 4 corners*
0 Add a 4 corners polygon primitive as box body*
4,1,4,$2,$3,$4,$5,$6,$7,$8,$9,$2,$3,0*
0 Add four circle primitives for the rounded corners*
1,1,$1+$1,$2,$3*
1,1,$1+$1,$4,$5*
1,1,$1+$1,$6,$7*
1,1,$1+$1,$8,$9*
0 Add four rect primitives between the rounded corners*
20,1,$1+$1,$2,$3,$4,$5,0*
20,1,$1+$1,$4,$5,$6,$7,0*
20,1,$1+$1,$6,$7,$8,$9,0*
20,1,$1+$1,$8,$9,$2,$3,0*%
G04 Aperture macros list end*
%ADD10R,1.600000X2.400000*%
%ADD11O,1.600000X2.400000*%
%ADD12R,1.500000X1.050000*%
%ADD13O,1.500000X1.050000*%
%ADD14R,1.524000X1.524000*%
%ADD15C,1.524000*%
%ADD16R,1.700000X1.700000*%
%ADD17R,1.600000X1.600000*%
%ADD18C,1.600000*%
%ADD19O,1.600000X1.600000*%
%ADD20R,1.050000X1.500000*%
%ADD21O,1.050000X1.500000*%
%ADD22R,2.000000X2.000000*%
%ADD23C,2.000000*%
%ADD24R,2.400000X1.600000*%
%ADD25O,2.400000X1.600000*%
%ADD26R,1.500000X1.500000*%
%ADD27C,1.500000*%
%ADD28R,1.905000X2.000000*%
%ADD29O,1.905000X2.000000*%
%ADD30R,1.750000X1.750000*%
%ADD31C,1.750000*%
%ADD32R,1.524000X2.524000*%
%ADD33O,1.524000X2.524000*%
%ADD34R,1.800000X1.800000*%
%ADD35C,1.800000*%
%ADD36RoundRect,0.250000X0.400000X0.625000X-0.400000X0.625000X-0.400000X-0.625000X0.400000X-0.625000X0*%
G04 APERTURE END LIST*
D10*
%TO.C,U9*%
X118337800Y-93371800D03*
D11*
X120877800Y-93371800D03*
X123417800Y-93371800D03*
X125957800Y-93371800D03*
X128497800Y-93371800D03*
X131037800Y-93371800D03*
X133577800Y-93371800D03*
X133577800Y-85751800D03*
X131037800Y-85751800D03*
X128497800Y-85751800D03*
X125957800Y-85751800D03*
X123417800Y-85751800D03*
X120877800Y-85751800D03*
X118337800Y-85751800D03*
%TD*%
D12*
%TO.C,Q4*%
X290612400Y-107051400D03*
D13*
X290612400Y-105781400D03*
X290612400Y-104511400D03*
%TD*%
D14*
%TO.C,U15*%
X134226600Y-145641200D03*
D15*
X134226600Y-105001200D03*
X116446600Y-105001200D03*
X116446600Y-145641200D03*
%TD*%
D16*
%TO.C,J2*%
X65761000Y-148823400D03*
%TD*%
D12*
%TO.C,Q1*%
X168190600Y-129926800D03*
D13*
X168190600Y-128656800D03*
X168190600Y-127386800D03*
%TD*%
D17*
%TO.C,C23*%
X85799041Y-105018800D03*
D18*
X83299041Y-105018800D03*
%TD*%
%TO.C,R59*%
X300163200Y-118618000D03*
D19*
X300163200Y-128778000D03*
%TD*%
D17*
%TO.C,C15*%
X208986200Y-116806359D03*
D18*
X208986200Y-114306359D03*
%TD*%
%TO.C,R19*%
X168635000Y-98873200D03*
D19*
X168635000Y-88713200D03*
%TD*%
D17*
%TO.C,C24*%
X94105759Y-105018800D03*
D18*
X91605759Y-105018800D03*
%TD*%
D15*
%TO.C,U13*%
X216452100Y-82993600D03*
X216452100Y-85533600D03*
X216452100Y-88073600D03*
X216452100Y-90613600D03*
X216452100Y-93153600D03*
X216452100Y-95693600D03*
X216452100Y-98233600D03*
X216452100Y-100773600D03*
X216452100Y-103313600D03*
X216452100Y-105853600D03*
X216452100Y-108393600D03*
X216452100Y-110933600D03*
X216452100Y-113473600D03*
X216452100Y-116013600D03*
X216452100Y-118553600D03*
X244392100Y-118553600D03*
X244392100Y-116013600D03*
X244392100Y-113473600D03*
X244392100Y-110933600D03*
X244392100Y-108393600D03*
X244392100Y-105853600D03*
X244392100Y-103313600D03*
X244392100Y-100773600D03*
X244392100Y-98233600D03*
X244392100Y-95693600D03*
X244392100Y-93153600D03*
X244392100Y-90613600D03*
X244392100Y-88073600D03*
X244392100Y-85533600D03*
X244392100Y-82993600D03*
%TD*%
D18*
%TO.C,R16*%
X168707200Y-124720000D03*
D19*
X168707200Y-114560000D03*
%TD*%
D18*
%TO.C,R17*%
X171956200Y-117120600D03*
D19*
X171956200Y-127280600D03*
%TD*%
D20*
%TO.C,Q5*%
X67077400Y-103556400D03*
D21*
X65807400Y-103556400D03*
X64537400Y-103556400D03*
%TD*%
D18*
%TO.C,R39*%
X292528400Y-98856800D03*
D19*
X292528400Y-88696800D03*
%TD*%
D20*
%TO.C,Q6*%
X67077400Y-109075000D03*
D21*
X65807400Y-109075000D03*
X64537400Y-109075000D03*
%TD*%
D18*
%TO.C,R40*%
X289391800Y-91288000D03*
D19*
X289391800Y-101448000D03*
%TD*%
D22*
%TO.C,C26*%
X72612646Y-138440200D03*
D23*
X67612646Y-138440200D03*
%TD*%
D17*
%TO.C,C18*%
X200888600Y-108173600D03*
D18*
X200888600Y-105673600D03*
%TD*%
%TO.C,R36*%
X292524000Y-124828800D03*
D19*
X292524000Y-114668800D03*
%TD*%
D17*
%TO.C,C21*%
X71427349Y-116731800D03*
D18*
X68927349Y-116731800D03*
%TD*%
D24*
%TO.C,U10*%
X185190400Y-93667400D03*
D25*
X185190400Y-96207400D03*
X185190400Y-98747400D03*
X185190400Y-101287400D03*
X185190400Y-103827400D03*
X185190400Y-106367400D03*
X185190400Y-108907400D03*
X185190400Y-111447400D03*
X192810400Y-111447400D03*
X192810400Y-108907400D03*
X192810400Y-106367400D03*
X192810400Y-103827400D03*
X192810400Y-101287400D03*
X192810400Y-98747400D03*
X192810400Y-96207400D03*
X192810400Y-93667400D03*
%TD*%
D16*
%TO.C,J1*%
X73960800Y-148823400D03*
%TD*%
D24*
%TO.C,U4*%
X269054200Y-93667400D03*
D25*
X269054200Y-96207400D03*
X269054200Y-98747400D03*
X269054200Y-101287400D03*
X269054200Y-103827400D03*
X269054200Y-106367400D03*
X269054200Y-108907400D03*
X269054200Y-111447400D03*
X276674200Y-111447400D03*
X276674200Y-108907400D03*
X276674200Y-106367400D03*
X276674200Y-103827400D03*
X276674200Y-101287400D03*
X276674200Y-98747400D03*
X276674200Y-96207400D03*
X276674200Y-93667400D03*
%TD*%
D22*
%TO.C,C27*%
X110446154Y-105018800D03*
D23*
X105446154Y-105018800D03*
%TD*%
D26*
%TO.C,U14*%
X253819200Y-81486600D03*
D27*
X256359200Y-81486600D03*
X258899200Y-81486600D03*
X261439200Y-81486600D03*
%TD*%
D18*
%TO.C,R61*%
X194988000Y-82030600D03*
D19*
X205148000Y-82030600D03*
%TD*%
D12*
%TO.C,Q3*%
X293735400Y-129962200D03*
D13*
X293735400Y-128692200D03*
X293735400Y-127422200D03*
%TD*%
D12*
%TO.C,Q2*%
X171354200Y-106830400D03*
D13*
X171354200Y-105560400D03*
X171354200Y-104290400D03*
%TD*%
D17*
%TO.C,C20*%
X71427349Y-126686400D03*
D18*
X68927349Y-126686400D03*
%TD*%
D28*
%TO.C,Q7*%
X296285600Y-145657800D03*
D29*
X293745600Y-145657800D03*
X291205600Y-145657800D03*
%TD*%
D18*
%TO.C,R20*%
X171825600Y-91261000D03*
D19*
X171825600Y-101421000D03*
%TD*%
D17*
%TO.C,C25*%
X208986200Y-108173600D03*
D18*
X208986200Y-105673600D03*
%TD*%
%TO.C,R37*%
X289389200Y-117196800D03*
D19*
X289389200Y-127356800D03*
%TD*%
D18*
%TO.C,R60*%
X209104000Y-82004400D03*
X211644000Y-82004400D03*
%TD*%
D30*
%TO.C,SSD4*%
X260180100Y-145671600D03*
D31*
X257640100Y-145671600D03*
X255100100Y-145671600D03*
X252560100Y-145671600D03*
X250020100Y-145671600D03*
X250020100Y-85671600D03*
X252560100Y-85671600D03*
X255100100Y-85671600D03*
X257640100Y-85671600D03*
X260180100Y-85671600D03*
%TD*%
D32*
%TO.C,SSD8*%
X61044100Y-148691600D03*
D33*
X58504100Y-148691600D03*
X55964100Y-148691600D03*
X53424100Y-148691600D03*
X50884100Y-148691600D03*
X50884100Y-133451600D03*
X53424100Y-133451600D03*
X55964100Y-133451600D03*
X58504100Y-133451600D03*
X61044100Y-133451600D03*
%TD*%
D34*
%TO.C,D3*%
X283421100Y-127355600D03*
D35*
X283421100Y-124815600D03*
%TD*%
D34*
%TO.C,D1*%
X177884100Y-127355600D03*
D35*
X177884100Y-124815600D03*
%TD*%
D36*
%TO.C,R53*%
X73418600Y-102570200D03*
X70318600Y-102570200D03*
%TD*%
D30*
%TO.C,SSD5*%
X316822100Y-145671600D03*
D31*
X314282100Y-145671600D03*
X311742100Y-145671600D03*
X309202100Y-145671600D03*
X306662100Y-145671600D03*
X306662100Y-85671600D03*
X309202100Y-85671600D03*
X311742100Y-85671600D03*
X314282100Y-85671600D03*
X316822100Y-85671600D03*
%TD*%
D36*
%TO.C,R58*%
X73418600Y-107169600D03*
X70318600Y-107169600D03*
%TD*%
D34*
%TO.C,D2*%
X177884100Y-101447600D03*
D35*
X177884100Y-98907600D03*
%TD*%
D30*
%TO.C,SSD3*%
X211412100Y-145671600D03*
D31*
X208872100Y-145671600D03*
X206332100Y-145671600D03*
X203792100Y-145671600D03*
X201252100Y-145671600D03*
X201252100Y-85671600D03*
X203792100Y-85671600D03*
X206332100Y-85671600D03*
X208872100Y-85671600D03*
X211412100Y-85671600D03*
%TD*%
D32*
%TO.C,SSD6*%
X74760100Y-97942400D03*
D33*
X72220100Y-97942400D03*
X69680100Y-97942400D03*
X67140100Y-97942400D03*
X64600100Y-97942400D03*
X64600100Y-82702400D03*
X67140100Y-82702400D03*
X69680100Y-82702400D03*
X72220100Y-82702400D03*
X74760100Y-82702400D03*
%TD*%
D30*
%TO.C,SSD2*%
X154770100Y-145671600D03*
D31*
X152230100Y-145671600D03*
X149690100Y-145671600D03*
X147150100Y-145671600D03*
X144610100Y-145671600D03*
X144610100Y-85671600D03*
X147150100Y-85671600D03*
X149690100Y-85671600D03*
X152230100Y-85671600D03*
X154770100Y-85671600D03*
%TD*%
D30*
%TO.C,SSD1*%
X106002100Y-145671600D03*
D31*
X103462100Y-145671600D03*
X100922100Y-145671600D03*
X98382100Y-145671600D03*
X95842100Y-145671600D03*
X95842100Y-85671600D03*
X98382100Y-85671600D03*
X100922100Y-85671600D03*
X103462100Y-85671600D03*
X106002100Y-85671600D03*
%TD*%
D34*
%TO.C,D4*%
X283421100Y-101447600D03*
D35*
X283421100Y-98907600D03*
%TD*%
D30*
%TO.C,SSD7*%
X365590100Y-145671600D03*
D31*
X363050100Y-145671600D03*
X360510100Y-145671600D03*
X357970100Y-145671600D03*
X355430100Y-145671600D03*
X355430100Y-85671600D03*
X357970100Y-85671600D03*
X360510100Y-85671600D03*
X363050100Y-85671600D03*
X365590100Y-85671600D03*
%TD*%
M02*
