%TF.GenerationSoftware,KiCad,Pcbnew,(6.0.10)*%
%TF.CreationDate,2023-02-22T22:23:04-03:00*%
%TF.ProjectId,SevenSegmentClock,53657665-6e53-4656-976d-656e74436c6f,rev?*%
%TF.SameCoordinates,Original*%
%TF.FileFunction,Soldermask,Top*%
%TF.FilePolarity,Negative*%
%FSLAX46Y46*%
G04 Gerber Fmt 4.6, Leading zero omitted, Abs format (unit mm)*
G04 Created by KiCad (PCBNEW (6.0.10)) date 2023-02-22 22:23:04*
%MOMM*%
%LPD*%
G01*
G04 APERTURE LIST*
G04 Aperture macros list*
%AMRoundRect*
0 Rectangle with rounded corners*
0 $1 Rounding radius*
0 $2 $3 $4 $5 $6 $7 $8 $9 X,Y pos of 4 corners*
0 Add a 4 corners polygon primitive as box body*
4,1,4,$2,$3,$4,$5,$6,$7,$8,$9,$2,$3,0*
0 Add four circle primitives for the rounded corners*
1,1,$1+$1,$2,$3*
1,1,$1+$1,$4,$5*
1,1,$1+$1,$6,$7*
1,1,$1+$1,$8,$9*
0 Add four rect primitives between the rounded corners*
20,1,$1+$1,$2,$3,$4,$5,0*
20,1,$1+$1,$4,$5,$6,$7,0*
20,1,$1+$1,$6,$7,$8,$9,0*
20,1,$1+$1,$8,$9,$2,$3,0*%
G04 Aperture macros list end*
%ADD10RoundRect,0.250000X-0.400000X-0.625000X0.400000X-0.625000X0.400000X0.625000X-0.400000X0.625000X0*%
%ADD11RoundRect,0.250000X0.625000X-0.400000X0.625000X0.400000X-0.625000X0.400000X-0.625000X-0.400000X0*%
%ADD12RoundRect,0.250000X-0.650000X0.412500X-0.650000X-0.412500X0.650000X-0.412500X0.650000X0.412500X0*%
%ADD13R,1.600000X2.400000*%
%ADD14O,1.600000X2.400000*%
%ADD15RoundRect,0.250000X0.412500X0.650000X-0.412500X0.650000X-0.412500X-0.650000X0.412500X-0.650000X0*%
%ADD16RoundRect,0.250000X-0.625000X0.400000X-0.625000X-0.400000X0.625000X-0.400000X0.625000X0.400000X0*%
%ADD17RoundRect,0.150000X0.150000X-0.825000X0.150000X0.825000X-0.150000X0.825000X-0.150000X-0.825000X0*%
%ADD18R,1.500000X1.050000*%
%ADD19O,1.500000X1.050000*%
%ADD20R,1.524000X1.524000*%
%ADD21C,1.524000*%
%ADD22R,1.700000X1.700000*%
%ADD23R,1.600000X1.600000*%
%ADD24C,1.600000*%
%ADD25O,1.600000X1.600000*%
%ADD26RoundRect,0.250000X0.400000X0.625000X-0.400000X0.625000X-0.400000X-0.625000X0.400000X-0.625000X0*%
%ADD27R,1.050000X1.500000*%
%ADD28O,1.050000X1.500000*%
%ADD29RoundRect,0.250000X0.650000X-0.412500X0.650000X0.412500X-0.650000X0.412500X-0.650000X-0.412500X0*%
%ADD30R,2.000000X2.000000*%
%ADD31C,2.000000*%
%ADD32R,2.400000X1.600000*%
%ADD33O,2.400000X1.600000*%
%ADD34R,1.500000X1.500000*%
%ADD35C,1.500000*%
%ADD36R,1.905000X2.000000*%
%ADD37O,1.905000X2.000000*%
%ADD38R,1.750000X1.750000*%
%ADD39C,1.750000*%
%ADD40R,1.524000X2.524000*%
%ADD41O,1.524000X2.524000*%
%ADD42R,1.800000X1.800000*%
%ADD43C,1.800000*%
G04 APERTURE END LIST*
D10*
%TO.C,R38*%
X281710800Y-105785000D03*
X284810800Y-105785000D03*
%TD*%
D11*
%TO.C,R1*%
X98382100Y-93599600D03*
X98382100Y-90499600D03*
%TD*%
D12*
%TO.C,C9*%
X304162200Y-124015100D03*
X304162200Y-127140100D03*
%TD*%
D13*
%TO.C,U9*%
X118337800Y-93371800D03*
D14*
X120877800Y-93371800D03*
X123417800Y-93371800D03*
X125957800Y-93371800D03*
X128497800Y-93371800D03*
X131037800Y-93371800D03*
X133577800Y-93371800D03*
X133577800Y-85751800D03*
X131037800Y-85751800D03*
X128497800Y-85751800D03*
X125957800Y-85751800D03*
X123417800Y-85751800D03*
X120877800Y-85751800D03*
X118337800Y-85751800D03*
%TD*%
D15*
%TO.C,C3*%
X274416700Y-90065600D03*
X271291700Y-90065600D03*
%TD*%
D16*
%TO.C,R55*%
X363050100Y-136981600D03*
X363050100Y-140081600D03*
%TD*%
D11*
%TO.C,R28*%
X252560100Y-93599600D03*
X252560100Y-90499600D03*
%TD*%
D17*
%TO.C,U5*%
X201887100Y-128052600D03*
X203157100Y-128052600D03*
X204427100Y-128052600D03*
X205697100Y-128052600D03*
X206967100Y-128052600D03*
X208237100Y-128052600D03*
X209507100Y-128052600D03*
X210777100Y-128052600D03*
X210777100Y-123102600D03*
X209507100Y-123102600D03*
X208237100Y-123102600D03*
X206967100Y-123102600D03*
X205697100Y-123102600D03*
X204427100Y-123102600D03*
X203157100Y-123102600D03*
X201887100Y-123102600D03*
%TD*%
D18*
%TO.C,Q4*%
X290612400Y-107051400D03*
D19*
X290612400Y-105781400D03*
X290612400Y-104511400D03*
%TD*%
D20*
%TO.C,U15*%
X134226600Y-145641200D03*
D21*
X134226600Y-105001200D03*
X116446600Y-105001200D03*
X116446600Y-145641200D03*
%TD*%
D16*
%TO.C,R12*%
X152230100Y-136981600D03*
X152230100Y-140081600D03*
%TD*%
D22*
%TO.C,J2*%
X65761000Y-148823400D03*
%TD*%
D12*
%TO.C,C8*%
X199223400Y-124015100D03*
X199223400Y-127140100D03*
%TD*%
D18*
%TO.C,Q1*%
X168190600Y-129926800D03*
D19*
X168190600Y-128656800D03*
X168190600Y-127386800D03*
%TD*%
D23*
%TO.C,C23*%
X85799041Y-105018800D03*
D24*
X83299041Y-105018800D03*
%TD*%
%TO.C,R59*%
X300163200Y-118618000D03*
D25*
X300163200Y-128778000D03*
%TD*%
D12*
%TO.C,C14*%
X94090800Y-124015100D03*
X94090800Y-127140100D03*
%TD*%
D11*
%TO.C,R50*%
X64769200Y-91872400D03*
X64769200Y-88772400D03*
%TD*%
D16*
%TO.C,R5*%
X103462100Y-136981600D03*
X103462100Y-140081600D03*
%TD*%
D26*
%TO.C,R15*%
X179357600Y-130574000D03*
X176257600Y-130574000D03*
%TD*%
D16*
%TO.C,R30*%
X252560100Y-136981600D03*
X252560100Y-140081600D03*
%TD*%
D11*
%TO.C,R34*%
X260180100Y-93599600D03*
X260180100Y-90499600D03*
%TD*%
D23*
%TO.C,C15*%
X208986200Y-116806359D03*
D24*
X208986200Y-114306359D03*
%TD*%
D16*
%TO.C,R52*%
X360510100Y-136981600D03*
X360510100Y-140081600D03*
%TD*%
%TO.C,R43*%
X309202100Y-136981600D03*
X309202100Y-140081600D03*
%TD*%
D24*
%TO.C,R19*%
X168635000Y-98873200D03*
D25*
X168635000Y-88713200D03*
%TD*%
D23*
%TO.C,C24*%
X94105759Y-105018800D03*
D24*
X91605759Y-105018800D03*
%TD*%
D11*
%TO.C,R29*%
X250020100Y-93599600D03*
X250020100Y-90499600D03*
%TD*%
D12*
%TO.C,C10*%
X352916200Y-124015100D03*
X352916200Y-127140100D03*
%TD*%
D16*
%TO.C,R11*%
X149690100Y-136981600D03*
X149690100Y-140081600D03*
%TD*%
%TO.C,R54*%
X61078600Y-125179100D03*
X61078600Y-128279100D03*
%TD*%
D21*
%TO.C,U13*%
X216452100Y-82993600D03*
X216452100Y-85533600D03*
X216452100Y-88073600D03*
X216452100Y-90613600D03*
X216452100Y-93153600D03*
X216452100Y-95693600D03*
X216452100Y-98233600D03*
X216452100Y-100773600D03*
X216452100Y-103313600D03*
X216452100Y-105853600D03*
X216452100Y-108393600D03*
X216452100Y-110933600D03*
X216452100Y-113473600D03*
X216452100Y-116013600D03*
X216452100Y-118553600D03*
X244392100Y-118553600D03*
X244392100Y-116013600D03*
X244392100Y-113473600D03*
X244392100Y-110933600D03*
X244392100Y-108393600D03*
X244392100Y-105853600D03*
X244392100Y-103313600D03*
X244392100Y-100773600D03*
X244392100Y-98233600D03*
X244392100Y-95693600D03*
X244392100Y-93153600D03*
X244392100Y-90613600D03*
X244392100Y-88073600D03*
X244392100Y-85533600D03*
X244392100Y-82993600D03*
%TD*%
D11*
%TO.C,R48*%
X357970100Y-93091600D03*
X357970100Y-89991600D03*
%TD*%
D16*
%TO.C,R10*%
X147150100Y-136981600D03*
X147150100Y-140081600D03*
%TD*%
D11*
%TO.C,R7*%
X106002100Y-93599600D03*
X106002100Y-90499600D03*
%TD*%
%TO.C,R46*%
X314282100Y-93599600D03*
X314282100Y-90499600D03*
%TD*%
D16*
%TO.C,R32*%
X257640100Y-136981600D03*
X257640100Y-140081600D03*
%TD*%
D24*
%TO.C,R16*%
X168707200Y-124720000D03*
D25*
X168707200Y-114560000D03*
%TD*%
D16*
%TO.C,R44*%
X311742100Y-136981600D03*
X311742100Y-140081600D03*
%TD*%
D11*
%TO.C,R21*%
X203792100Y-93599600D03*
X203792100Y-90499600D03*
%TD*%
D17*
%TO.C,U12*%
X356065100Y-128052600D03*
X357335100Y-128052600D03*
X358605100Y-128052600D03*
X359875100Y-128052600D03*
X361145100Y-128052600D03*
X362415100Y-128052600D03*
X363685100Y-128052600D03*
X364955100Y-128052600D03*
X364955100Y-123102600D03*
X363685100Y-123102600D03*
X362415100Y-123102600D03*
X361145100Y-123102600D03*
X359875100Y-123102600D03*
X358605100Y-123102600D03*
X357335100Y-123102600D03*
X356065100Y-123102600D03*
%TD*%
D24*
%TO.C,R17*%
X171956200Y-117120600D03*
D25*
X171956200Y-127280600D03*
%TD*%
D27*
%TO.C,Q5*%
X67077400Y-103556400D03*
D28*
X65807400Y-103556400D03*
X64537400Y-103556400D03*
%TD*%
D12*
%TO.C,C12*%
X142313400Y-124015100D03*
X142313400Y-127140100D03*
%TD*%
D16*
%TO.C,R23*%
X203792100Y-136981600D03*
X203792100Y-140081600D03*
%TD*%
D24*
%TO.C,R39*%
X292528400Y-98856800D03*
D25*
X292528400Y-88696800D03*
%TD*%
D27*
%TO.C,Q6*%
X67077400Y-109075000D03*
D28*
X65807400Y-109075000D03*
X64537400Y-109075000D03*
%TD*%
D29*
%TO.C,C1*%
X185174600Y-129729600D03*
X185174600Y-126604600D03*
%TD*%
D16*
%TO.C,R25*%
X208872100Y-136981600D03*
X208872100Y-140081600D03*
%TD*%
%TO.C,R4*%
X100922100Y-136981600D03*
X100922100Y-140081600D03*
%TD*%
D15*
%TO.C,C4*%
X190552900Y-89049600D03*
X187427900Y-89049600D03*
%TD*%
D29*
%TO.C,C17*%
X213628000Y-108553720D03*
X213628000Y-105428720D03*
%TD*%
D11*
%TO.C,R2*%
X95842100Y-93599600D03*
X95842100Y-90499600D03*
%TD*%
D17*
%TO.C,U2*%
X269189200Y-128052600D03*
X270459200Y-128052600D03*
X271729200Y-128052600D03*
X272999200Y-128052600D03*
X274269200Y-128052600D03*
X275539200Y-128052600D03*
X276809200Y-128052600D03*
X278079200Y-128052600D03*
X278079200Y-123102600D03*
X276809200Y-123102600D03*
X275539200Y-123102600D03*
X274269200Y-123102600D03*
X272999200Y-123102600D03*
X271729200Y-123102600D03*
X270459200Y-123102600D03*
X269189200Y-123102600D03*
%TD*%
D16*
%TO.C,R31*%
X255100100Y-136981600D03*
X255100100Y-140081600D03*
%TD*%
D17*
%TO.C,U1*%
X96477100Y-128052600D03*
X97747100Y-128052600D03*
X99017100Y-128052600D03*
X100287100Y-128052600D03*
X101557100Y-128052600D03*
X102827100Y-128052600D03*
X104097100Y-128052600D03*
X105367100Y-128052600D03*
X105367100Y-123102600D03*
X104097100Y-123102600D03*
X102827100Y-123102600D03*
X101557100Y-123102600D03*
X100287100Y-123102600D03*
X99017100Y-123102600D03*
X97747100Y-123102600D03*
X96477100Y-123102600D03*
%TD*%
%TO.C,U7*%
X225977100Y-145685000D03*
X227247100Y-145685000D03*
X228517100Y-145685000D03*
X229787100Y-145685000D03*
X231057100Y-145685000D03*
X232327100Y-145685000D03*
X233597100Y-145685000D03*
X234867100Y-145685000D03*
X234867100Y-140735000D03*
X233597100Y-140735000D03*
X232327100Y-140735000D03*
X231057100Y-140735000D03*
X229787100Y-140735000D03*
X228517100Y-140735000D03*
X227247100Y-140735000D03*
X225977100Y-140735000D03*
%TD*%
D11*
%TO.C,R13*%
X152230100Y-93599600D03*
X152230100Y-90499600D03*
%TD*%
D16*
%TO.C,R51*%
X357970100Y-136981600D03*
X357970100Y-140081600D03*
%TD*%
%TO.C,R3*%
X98382100Y-136981600D03*
X98382100Y-140081600D03*
%TD*%
D11*
%TO.C,R47*%
X316844100Y-93599600D03*
X316844100Y-90499600D03*
%TD*%
D10*
%TO.C,R35*%
X281736200Y-130536000D03*
X284836200Y-130536000D03*
%TD*%
D17*
%TO.C,U11*%
X307297100Y-128052600D03*
X308567100Y-128052600D03*
X309837100Y-128052600D03*
X311107100Y-128052600D03*
X312377100Y-128052600D03*
X313647100Y-128052600D03*
X314917100Y-128052600D03*
X316187100Y-128052600D03*
X316187100Y-123102600D03*
X314917100Y-123102600D03*
X313647100Y-123102600D03*
X312377100Y-123102600D03*
X311107100Y-123102600D03*
X309837100Y-123102600D03*
X308567100Y-123102600D03*
X307297100Y-123102600D03*
%TD*%
D29*
%TO.C,C16*%
X213628000Y-117186479D03*
X213628000Y-114061479D03*
%TD*%
D24*
%TO.C,R40*%
X289391800Y-91288000D03*
D25*
X289391800Y-101448000D03*
%TD*%
D30*
%TO.C,C26*%
X72612646Y-138440200D03*
D31*
X67612646Y-138440200D03*
%TD*%
D23*
%TO.C,C18*%
X200888600Y-108173600D03*
D24*
X200888600Y-105673600D03*
%TD*%
%TO.C,R36*%
X292524000Y-124828800D03*
D25*
X292524000Y-114668800D03*
%TD*%
D16*
%TO.C,R45*%
X314282100Y-136981600D03*
X314282100Y-140081600D03*
%TD*%
D23*
%TO.C,C21*%
X71427349Y-116731800D03*
D24*
X68927349Y-116731800D03*
%TD*%
D11*
%TO.C,R9*%
X144610100Y-93599600D03*
X144610100Y-90499600D03*
%TD*%
D32*
%TO.C,U10*%
X185190400Y-93667400D03*
D33*
X185190400Y-96207400D03*
X185190400Y-98747400D03*
X185190400Y-101287400D03*
X185190400Y-103827400D03*
X185190400Y-106367400D03*
X185190400Y-108907400D03*
X185190400Y-111447400D03*
X192810400Y-111447400D03*
X192810400Y-108907400D03*
X192810400Y-106367400D03*
X192810400Y-103827400D03*
X192810400Y-101287400D03*
X192810400Y-98747400D03*
X192810400Y-96207400D03*
X192810400Y-93667400D03*
%TD*%
D17*
%TO.C,U8*%
X250655100Y-128052600D03*
X251925100Y-128052600D03*
X253195100Y-128052600D03*
X254465100Y-128052600D03*
X255735100Y-128052600D03*
X257005100Y-128052600D03*
X258275100Y-128052600D03*
X259545100Y-128052600D03*
X259545100Y-123102600D03*
X258275100Y-123102600D03*
X257005100Y-123102600D03*
X255735100Y-123102600D03*
X254465100Y-123102600D03*
X253195100Y-123102600D03*
X251925100Y-123102600D03*
X250655100Y-123102600D03*
%TD*%
D22*
%TO.C,J1*%
X73960800Y-148823400D03*
%TD*%
D32*
%TO.C,U4*%
X269054200Y-93667400D03*
D33*
X269054200Y-96207400D03*
X269054200Y-98747400D03*
X269054200Y-101287400D03*
X269054200Y-103827400D03*
X269054200Y-106367400D03*
X269054200Y-108907400D03*
X269054200Y-111447400D03*
X276674200Y-111447400D03*
X276674200Y-108907400D03*
X276674200Y-106367400D03*
X276674200Y-103827400D03*
X276674200Y-101287400D03*
X276674200Y-98747400D03*
X276674200Y-96207400D03*
X276674200Y-93667400D03*
%TD*%
D10*
%TO.C,R62*%
X247057400Y-82971400D03*
X250157400Y-82971400D03*
%TD*%
D30*
%TO.C,C27*%
X110446154Y-105018800D03*
D31*
X105446154Y-105018800D03*
%TD*%
D26*
%TO.C,R18*%
X179324200Y-105569400D03*
X176224200Y-105569400D03*
%TD*%
D34*
%TO.C,U14*%
X253819200Y-81486600D03*
D35*
X256359200Y-81486600D03*
X258899200Y-81486600D03*
X261439200Y-81486600D03*
%TD*%
D17*
%TO.C,U3*%
X145245100Y-128052600D03*
X146515100Y-128052600D03*
X147785100Y-128052600D03*
X149055100Y-128052600D03*
X150325100Y-128052600D03*
X151595100Y-128052600D03*
X152865100Y-128052600D03*
X154135100Y-128052600D03*
X154135100Y-123102600D03*
X152865100Y-123102600D03*
X151595100Y-123102600D03*
X150325100Y-123102600D03*
X149055100Y-123102600D03*
X147785100Y-123102600D03*
X146515100Y-123102600D03*
X145245100Y-123102600D03*
%TD*%
D24*
%TO.C,R61*%
X194988000Y-82030600D03*
D25*
X205148000Y-82030600D03*
%TD*%
D29*
%TO.C,C19*%
X111647000Y-145605900D03*
X111647000Y-142480900D03*
%TD*%
D15*
%TO.C,C22*%
X109640977Y-111900000D03*
X106515977Y-111900000D03*
%TD*%
D18*
%TO.C,Q3*%
X293735400Y-129962200D03*
D19*
X293735400Y-128692200D03*
X293735400Y-127422200D03*
%TD*%
D18*
%TO.C,Q2*%
X171354200Y-106830400D03*
D19*
X171354200Y-105560400D03*
X171354200Y-104290400D03*
%TD*%
D11*
%TO.C,R33*%
X257640100Y-93599600D03*
X257640100Y-90499600D03*
%TD*%
%TO.C,R27*%
X211412100Y-93599600D03*
X211412100Y-90499600D03*
%TD*%
%TO.C,R56*%
X363050100Y-93091600D03*
X363050100Y-89991600D03*
%TD*%
%TO.C,R22*%
X201252100Y-93599600D03*
X201252100Y-90499600D03*
%TD*%
%TO.C,R26*%
X208872100Y-93599600D03*
X208872100Y-90499600D03*
%TD*%
D16*
%TO.C,R24*%
X206332100Y-136981600D03*
X206332100Y-140081600D03*
%TD*%
D12*
%TO.C,C2*%
X113992400Y-88009300D03*
X113992400Y-91134300D03*
%TD*%
D23*
%TO.C,C20*%
X71427349Y-126686400D03*
D24*
X68927349Y-126686400D03*
%TD*%
D12*
%TO.C,C7*%
X185174600Y-121477600D03*
X185174600Y-124602600D03*
%TD*%
%TO.C,C6*%
X222842800Y-141647500D03*
X222842800Y-144772500D03*
%TD*%
D36*
%TO.C,Q7*%
X296285600Y-145657800D03*
D37*
X293745600Y-145657800D03*
X291205600Y-145657800D03*
%TD*%
D11*
%TO.C,R8*%
X147150100Y-93599600D03*
X147150100Y-90499600D03*
%TD*%
%TO.C,R42*%
X306662100Y-93599600D03*
X306662100Y-90499600D03*
%TD*%
D12*
%TO.C,C11*%
X247647200Y-124015100D03*
X247647200Y-127140100D03*
%TD*%
D17*
%TO.C,U6*%
X187654400Y-128078600D03*
X188924400Y-128078600D03*
X190194400Y-128078600D03*
X191464400Y-128078600D03*
X192734400Y-128078600D03*
X194004400Y-128078600D03*
X195274400Y-128078600D03*
X196544400Y-128078600D03*
X196544400Y-123128600D03*
X195274400Y-123128600D03*
X194004400Y-123128600D03*
X192734400Y-123128600D03*
X191464400Y-123128600D03*
X190194400Y-123128600D03*
X188924400Y-123128600D03*
X187654400Y-123128600D03*
%TD*%
D11*
%TO.C,R49*%
X355430100Y-93091600D03*
X355430100Y-89991600D03*
%TD*%
D24*
%TO.C,R20*%
X171825600Y-91261000D03*
D25*
X171825600Y-101421000D03*
%TD*%
D12*
%TO.C,C13*%
X266268200Y-121515100D03*
X266268200Y-124640100D03*
%TD*%
D23*
%TO.C,C25*%
X208986200Y-108173600D03*
D24*
X208986200Y-105673600D03*
%TD*%
D11*
%TO.C,R6*%
X103462100Y-93599600D03*
X103462100Y-90499600D03*
%TD*%
D24*
%TO.C,R37*%
X289389200Y-117196800D03*
D25*
X289389200Y-127356800D03*
%TD*%
D11*
%TO.C,R57*%
X365590100Y-93091600D03*
X365590100Y-89991600D03*
%TD*%
D29*
%TO.C,C5*%
X266268200Y-129640100D03*
X266268200Y-126515100D03*
%TD*%
D11*
%TO.C,R41*%
X309202100Y-93599600D03*
X309202100Y-90499600D03*
%TD*%
D24*
%TO.C,R60*%
X209104000Y-82004400D03*
X211644000Y-82004400D03*
%TD*%
D11*
%TO.C,R14*%
X154770100Y-93599600D03*
X154770100Y-90499600D03*
%TD*%
D38*
%TO.C,SSD4*%
X260180100Y-145671600D03*
D39*
X257640100Y-145671600D03*
X255100100Y-145671600D03*
X252560100Y-145671600D03*
X250020100Y-145671600D03*
X250020100Y-85671600D03*
X252560100Y-85671600D03*
X255100100Y-85671600D03*
X257640100Y-85671600D03*
X260180100Y-85671600D03*
%TD*%
D40*
%TO.C,SSD8*%
X61044100Y-148691600D03*
D41*
X58504100Y-148691600D03*
X55964100Y-148691600D03*
X53424100Y-148691600D03*
X50884100Y-148691600D03*
X50884100Y-133451600D03*
X53424100Y-133451600D03*
X55964100Y-133451600D03*
X58504100Y-133451600D03*
X61044100Y-133451600D03*
%TD*%
D42*
%TO.C,D3*%
X283421100Y-127355600D03*
D43*
X283421100Y-124815600D03*
%TD*%
D42*
%TO.C,D1*%
X177884100Y-127355600D03*
D43*
X177884100Y-124815600D03*
%TD*%
D38*
%TO.C,SSD5*%
X316822100Y-145671600D03*
D39*
X314282100Y-145671600D03*
X311742100Y-145671600D03*
X309202100Y-145671600D03*
X306662100Y-145671600D03*
X306662100Y-85671600D03*
X309202100Y-85671600D03*
X311742100Y-85671600D03*
X314282100Y-85671600D03*
X316822100Y-85671600D03*
%TD*%
D42*
%TO.C,D2*%
X177884100Y-101447600D03*
D43*
X177884100Y-98907600D03*
%TD*%
D38*
%TO.C,SSD3*%
X211412100Y-145671600D03*
D39*
X208872100Y-145671600D03*
X206332100Y-145671600D03*
X203792100Y-145671600D03*
X201252100Y-145671600D03*
X201252100Y-85671600D03*
X203792100Y-85671600D03*
X206332100Y-85671600D03*
X208872100Y-85671600D03*
X211412100Y-85671600D03*
%TD*%
D40*
%TO.C,SSD6*%
X74760100Y-97942400D03*
D41*
X72220100Y-97942400D03*
X69680100Y-97942400D03*
X67140100Y-97942400D03*
X64600100Y-97942400D03*
X64600100Y-82702400D03*
X67140100Y-82702400D03*
X69680100Y-82702400D03*
X72220100Y-82702400D03*
X74760100Y-82702400D03*
%TD*%
D38*
%TO.C,SSD2*%
X154770100Y-145671600D03*
D39*
X152230100Y-145671600D03*
X149690100Y-145671600D03*
X147150100Y-145671600D03*
X144610100Y-145671600D03*
X144610100Y-85671600D03*
X147150100Y-85671600D03*
X149690100Y-85671600D03*
X152230100Y-85671600D03*
X154770100Y-85671600D03*
%TD*%
D38*
%TO.C,SSD1*%
X106002100Y-145671600D03*
D39*
X103462100Y-145671600D03*
X100922100Y-145671600D03*
X98382100Y-145671600D03*
X95842100Y-145671600D03*
X95842100Y-85671600D03*
X98382100Y-85671600D03*
X100922100Y-85671600D03*
X103462100Y-85671600D03*
X106002100Y-85671600D03*
%TD*%
D42*
%TO.C,D4*%
X283421100Y-101447600D03*
D43*
X283421100Y-98907600D03*
%TD*%
D38*
%TO.C,SSD7*%
X365590100Y-145671600D03*
D39*
X363050100Y-145671600D03*
X360510100Y-145671600D03*
X357970100Y-145671600D03*
X355430100Y-145671600D03*
X355430100Y-85671600D03*
X357970100Y-85671600D03*
X360510100Y-85671600D03*
X363050100Y-85671600D03*
X365590100Y-85671600D03*
%TD*%
M02*
